<!-- Generated by IcoMoon.io -->
<svg version="1.1" xmlns="http://www.w3.org/2000/svg" width="32" height="32" viewBox="0 0 32 32">
<path d="M1.066 5.335c0-0.566 0.225-1.108 0.625-1.508s0.943-0.625 1.508-0.625h25.6c0.566 0 1.108 0.225 1.508 0.625s0.625 0.943 0.625 1.508-0.225 1.108-0.625 1.508c-0.4 0.4-0.943 0.625-1.508 0.625h-25.6c-0.566 0-1.108-0.225-1.508-0.625s-0.625-0.943-0.625-1.508z"></path>
<path d="M1.066 16.001c0-0.566 0.225-1.108 0.625-1.508s0.943-0.625 1.508-0.625h25.6c0.566 0 1.108 0.225 1.508 0.625s0.625 0.943 0.625 1.508-0.225 1.108-0.625 1.509c-0.4 0.4-0.943 0.625-1.508 0.625h-25.6c-0.566 0-1.108-0.225-1.508-0.625s-0.625-0.943-0.625-1.509z"></path>
<path d="M1.066 26.668c0-0.566 0.225-1.108 0.625-1.508s0.943-0.625 1.508-0.625h25.6c0.566 0 1.108 0.225 1.508 0.625s0.625 0.943 0.625 1.508c0 0.566-0.225 1.108-0.625 1.508s-0.943 0.625-1.508 0.625h-25.6c-0.566 0-1.108-0.225-1.508-0.625s-0.625-0.943-0.625-1.508z"></path>
</svg>
